<mxfile host="app.diagrams.net" agent="Mozilla/5.0 (Windows NT 10.0; Win64; x64) AppleWebKit/537.36 (KHTML, like Gecko) Chrome/126.0.0.0 Safari/537.36" version="24.7.7">
  <diagram name="第 1 页" id="AnMxYvLJYvuUL39tqKR8">
    <mxGraphModel dx="1147" dy="737" grid="1" gridSize="10" guides="1" tooltips="1" connect="1" arrows="1" fold="1" page="1" pageScale="1" pageWidth="827" pageHeight="1169" math="0" shadow="0">
      <root>
        <mxCell id="0" />
        <mxCell id="1" parent="0" />
        <mxCell id="YMs_w-YO0QDrecfEAsBb-37" style="edgeStyle=orthogonalEdgeStyle;rounded=0;orthogonalLoop=1;jettySize=auto;html=1;exitX=0.5;exitY=1;exitDx=0;exitDy=0;exitPerimeter=0;entryX=0.5;entryY=0;entryDx=0;entryDy=0;" edge="1" parent="1" source="YMs_w-YO0QDrecfEAsBb-1" target="YMs_w-YO0QDrecfEAsBb-2">
          <mxGeometry relative="1" as="geometry" />
        </mxCell>
        <mxCell id="YMs_w-YO0QDrecfEAsBb-1" value="Sass下发任务" style="strokeWidth=2;html=1;shape=mxgraph.flowchart.start_1;whiteSpace=wrap;" vertex="1" parent="1">
          <mxGeometry x="126" y="10" width="100" height="60" as="geometry" />
        </mxCell>
        <mxCell id="YMs_w-YO0QDrecfEAsBb-38" style="edgeStyle=orthogonalEdgeStyle;rounded=0;orthogonalLoop=1;jettySize=auto;html=1;exitX=0.5;exitY=1;exitDx=0;exitDy=0;entryX=0.5;entryY=0;entryDx=0;entryDy=0;" edge="1" parent="1" source="YMs_w-YO0QDrecfEAsBb-2" target="YMs_w-YO0QDrecfEAsBb-3">
          <mxGeometry relative="1" as="geometry" />
        </mxCell>
        <mxCell id="YMs_w-YO0QDrecfEAsBb-45" style="edgeStyle=orthogonalEdgeStyle;rounded=0;orthogonalLoop=1;jettySize=auto;html=1;exitX=1;exitY=0.5;exitDx=0;exitDy=0;entryX=0;entryY=0.5;entryDx=0;entryDy=0;" edge="1" parent="1" source="YMs_w-YO0QDrecfEAsBb-2" target="YMs_w-YO0QDrecfEAsBb-10">
          <mxGeometry relative="1" as="geometry" />
        </mxCell>
        <mxCell id="YMs_w-YO0QDrecfEAsBb-2" value="构建图搜上下文" style="rounded=0;whiteSpace=wrap;html=1;fontStyle=1" vertex="1" parent="1">
          <mxGeometry x="116" y="110" width="120" height="60" as="geometry" />
        </mxCell>
        <mxCell id="YMs_w-YO0QDrecfEAsBb-39" style="edgeStyle=orthogonalEdgeStyle;rounded=0;orthogonalLoop=1;jettySize=auto;html=1;exitX=0.5;exitY=1;exitDx=0;exitDy=0;entryX=0.5;entryY=0;entryDx=0;entryDy=0;" edge="1" parent="1" source="YMs_w-YO0QDrecfEAsBb-3" target="YMs_w-YO0QDrecfEAsBb-4">
          <mxGeometry relative="1" as="geometry" />
        </mxCell>
        <mxCell id="YMs_w-YO0QDrecfEAsBb-46" style="edgeStyle=orthogonalEdgeStyle;rounded=0;orthogonalLoop=1;jettySize=auto;html=1;exitX=1;exitY=0.5;exitDx=0;exitDy=0;entryX=0;entryY=0.5;entryDx=0;entryDy=0;" edge="1" parent="1" source="YMs_w-YO0QDrecfEAsBb-3" target="YMs_w-YO0QDrecfEAsBb-11">
          <mxGeometry relative="1" as="geometry" />
        </mxCell>
        <mxCell id="YMs_w-YO0QDrecfEAsBb-3" value="&lt;font style=&quot;font-size: 12px;&quot;&gt;设置图搜范围&lt;/font&gt;&lt;div&gt;&lt;span style=&quot;font-weight: normal; background-color: initial;&quot;&gt;（&lt;/span&gt;&lt;span style=&quot;font-weight: normal; background-color: rgb(255, 255, 255);&quot;&gt;将&lt;/span&gt;&lt;span style=&quot;font-weight: normal; background-color: rgb(255, 255, 255);&quot;&gt;通道&lt;/span&gt;&lt;span style=&quot;font-weight: normal; background-color: rgb(255, 255, 255);&quot;&gt;id &lt;/span&gt;&lt;span style=&quot;font-weight: normal; background-color: rgb(255, 255, 255);&quot;&gt;转换成库主键&lt;/span&gt;&lt;span style=&quot;font-weight: normal; background-color: rgb(255, 255, 255);&quot;&gt;id &lt;/span&gt;&lt;span style=&quot;font-weight: normal; background-color: rgb(255, 255, 255);&quot;&gt;确定检索范围&lt;/span&gt;&lt;span style=&quot;font-weight: normal; background-color: initial;&quot;&gt;）&lt;/span&gt;&lt;/div&gt;" style="rounded=0;whiteSpace=wrap;html=1;fontStyle=1" vertex="1" parent="1">
          <mxGeometry x="116" y="230" width="120" height="60" as="geometry" />
        </mxCell>
        <mxCell id="YMs_w-YO0QDrecfEAsBb-40" style="edgeStyle=orthogonalEdgeStyle;rounded=0;orthogonalLoop=1;jettySize=auto;html=1;exitX=0.5;exitY=1;exitDx=0;exitDy=0;entryX=0.5;entryY=0;entryDx=0;entryDy=0;" edge="1" parent="1" source="YMs_w-YO0QDrecfEAsBb-4" target="YMs_w-YO0QDrecfEAsBb-5">
          <mxGeometry relative="1" as="geometry" />
        </mxCell>
        <mxCell id="YMs_w-YO0QDrecfEAsBb-47" style="edgeStyle=orthogonalEdgeStyle;rounded=0;orthogonalLoop=1;jettySize=auto;html=1;exitX=1;exitY=0.5;exitDx=0;exitDy=0;entryX=0;entryY=0.5;entryDx=0;entryDy=0;" edge="1" parent="1" source="YMs_w-YO0QDrecfEAsBb-4" target="YMs_w-YO0QDrecfEAsBb-20">
          <mxGeometry relative="1" as="geometry" />
        </mxCell>
        <mxCell id="YMs_w-YO0QDrecfEAsBb-4" value="库资源关系转换" style="rounded=0;whiteSpace=wrap;html=1;fontStyle=1" vertex="1" parent="1">
          <mxGeometry x="116" y="330" width="120" height="60" as="geometry" />
        </mxCell>
        <mxCell id="YMs_w-YO0QDrecfEAsBb-41" style="edgeStyle=orthogonalEdgeStyle;rounded=0;orthogonalLoop=1;jettySize=auto;html=1;exitX=0.5;exitY=1;exitDx=0;exitDy=0;entryX=0.5;entryY=0;entryDx=0;entryDy=0;" edge="1" parent="1" source="YMs_w-YO0QDrecfEAsBb-5" target="YMs_w-YO0QDrecfEAsBb-6">
          <mxGeometry relative="1" as="geometry" />
        </mxCell>
        <mxCell id="YMs_w-YO0QDrecfEAsBb-48" style="edgeStyle=orthogonalEdgeStyle;rounded=0;orthogonalLoop=1;jettySize=auto;html=1;exitX=1;exitY=0.5;exitDx=0;exitDy=0;entryX=0;entryY=0.5;entryDx=0;entryDy=0;" edge="1" parent="1" source="YMs_w-YO0QDrecfEAsBb-5" target="YMs_w-YO0QDrecfEAsBb-27">
          <mxGeometry relative="1" as="geometry" />
        </mxCell>
        <mxCell id="YMs_w-YO0QDrecfEAsBb-5" value="特征转换&lt;div&gt;（车辆是1、2、3）&lt;/div&gt;" style="rounded=0;whiteSpace=wrap;html=1;fontStyle=1" vertex="1" parent="1">
          <mxGeometry x="116" y="430" width="120" height="60" as="geometry" />
        </mxCell>
        <mxCell id="YMs_w-YO0QDrecfEAsBb-42" style="edgeStyle=orthogonalEdgeStyle;rounded=0;orthogonalLoop=1;jettySize=auto;html=1;exitX=0.5;exitY=1;exitDx=0;exitDy=0;entryX=0.5;entryY=0;entryDx=0;entryDy=0;" edge="1" parent="1" source="YMs_w-YO0QDrecfEAsBb-6" target="YMs_w-YO0QDrecfEAsBb-7">
          <mxGeometry relative="1" as="geometry" />
        </mxCell>
        <mxCell id="YMs_w-YO0QDrecfEAsBb-49" style="edgeStyle=orthogonalEdgeStyle;rounded=0;orthogonalLoop=1;jettySize=auto;html=1;exitX=1;exitY=0.5;exitDx=0;exitDy=0;entryX=0;entryY=0.5;entryDx=0;entryDy=0;" edge="1" parent="1" source="YMs_w-YO0QDrecfEAsBb-6" target="YMs_w-YO0QDrecfEAsBb-29">
          <mxGeometry relative="1" as="geometry" />
        </mxCell>
        <mxCell id="YMs_w-YO0QDrecfEAsBb-6" value="图搜任务分组" style="rounded=0;whiteSpace=wrap;html=1;fontStyle=1" vertex="1" parent="1">
          <mxGeometry x="116" y="530" width="120" height="60" as="geometry" />
        </mxCell>
        <mxCell id="YMs_w-YO0QDrecfEAsBb-43" style="edgeStyle=orthogonalEdgeStyle;rounded=0;orthogonalLoop=1;jettySize=auto;html=1;exitX=0.5;exitY=1;exitDx=0;exitDy=0;entryX=0.5;entryY=0;entryDx=0;entryDy=0;" edge="1" parent="1" source="YMs_w-YO0QDrecfEAsBb-7" target="YMs_w-YO0QDrecfEAsBb-8">
          <mxGeometry relative="1" as="geometry" />
        </mxCell>
        <mxCell id="YMs_w-YO0QDrecfEAsBb-7" value="运维数据埋点" style="rounded=0;whiteSpace=wrap;html=1;fontStyle=1" vertex="1" parent="1">
          <mxGeometry x="116" y="630" width="120" height="60" as="geometry" />
        </mxCell>
        <mxCell id="YMs_w-YO0QDrecfEAsBb-44" style="edgeStyle=orthogonalEdgeStyle;rounded=0;orthogonalLoop=1;jettySize=auto;html=1;exitX=0.5;exitY=1;exitDx=0;exitDy=0;entryX=0.5;entryY=0;entryDx=0;entryDy=0;" edge="1" parent="1" source="YMs_w-YO0QDrecfEAsBb-8" target="YMs_w-YO0QDrecfEAsBb-9">
          <mxGeometry relative="1" as="geometry" />
        </mxCell>
        <mxCell id="YMs_w-YO0QDrecfEAsBb-50" style="edgeStyle=orthogonalEdgeStyle;rounded=0;orthogonalLoop=1;jettySize=auto;html=1;exitX=1;exitY=0.5;exitDx=0;exitDy=0;entryX=0;entryY=0.5;entryDx=0;entryDy=0;" edge="1" parent="1" source="YMs_w-YO0QDrecfEAsBb-8" target="YMs_w-YO0QDrecfEAsBb-33">
          <mxGeometry relative="1" as="geometry" />
        </mxCell>
        <mxCell id="YMs_w-YO0QDrecfEAsBb-8" value="执行图搜" style="rounded=0;whiteSpace=wrap;html=1;fontStyle=1" vertex="1" parent="1">
          <mxGeometry x="116" y="720" width="120" height="60" as="geometry" />
        </mxCell>
        <mxCell id="YMs_w-YO0QDrecfEAsBb-9" value="结果封装" style="rounded=0;whiteSpace=wrap;html=1;fontStyle=1" vertex="1" parent="1">
          <mxGeometry x="116" y="810" width="120" height="60" as="geometry" />
        </mxCell>
        <mxCell id="YMs_w-YO0QDrecfEAsBb-10" value="&lt;font style=&quot;font-size: 12px;&quot;&gt;设置图搜时间、图片信息、相似度、排序规则、特征版本、通道ID、&lt;/font&gt;" style="rounded=0;whiteSpace=wrap;html=1;fillColor=#ffe6cc;strokeColor=#d79b00;" vertex="1" parent="1">
          <mxGeometry x="290" y="90" width="390" height="50" as="geometry" />
        </mxCell>
        <mxCell id="YMs_w-YO0QDrecfEAsBb-19" style="edgeStyle=orthogonalEdgeStyle;rounded=0;orthogonalLoop=1;jettySize=auto;html=1;exitX=1;exitY=0.5;exitDx=0;exitDy=0;entryX=0;entryY=0.5;entryDx=0;entryDy=0;" edge="1" parent="1" source="YMs_w-YO0QDrecfEAsBb-11" target="YMs_w-YO0QDrecfEAsBb-13">
          <mxGeometry relative="1" as="geometry" />
        </mxCell>
        <mxCell id="YMs_w-YO0QDrecfEAsBb-11" value="channelIds&lt;div&gt;是否为空&lt;/div&gt;" style="rhombus;whiteSpace=wrap;html=1;" vertex="1" parent="1">
          <mxGeometry x="310" y="210" width="80" height="80" as="geometry" />
        </mxCell>
        <mxCell id="YMs_w-YO0QDrecfEAsBb-17" style="edgeStyle=orthogonalEdgeStyle;rounded=0;orthogonalLoop=1;jettySize=auto;html=1;exitX=1;exitY=0.5;exitDx=0;exitDy=0;entryX=0;entryY=0.5;entryDx=0;entryDy=0;" edge="1" parent="1" source="YMs_w-YO0QDrecfEAsBb-12" target="YMs_w-YO0QDrecfEAsBb-14">
          <mxGeometry relative="1" as="geometry" />
        </mxCell>
        <mxCell id="YMs_w-YO0QDrecfEAsBb-12" value="获取该uid下所有抓拍库ID（车辆实时抓拍库、车辆预案抓拍库），设置图搜范围为ALL" style="rounded=0;whiteSpace=wrap;html=1;" vertex="1" parent="1">
          <mxGeometry x="440" y="160" width="170" height="70" as="geometry" />
        </mxCell>
        <mxCell id="YMs_w-YO0QDrecfEAsBb-13" value="获取该uid下channelID对应的所有抓拍库ID（车辆实时抓拍库、车辆预案抓拍库），设置图搜范围为PART" style="rounded=0;whiteSpace=wrap;html=1;" vertex="1" parent="1">
          <mxGeometry x="440" y="250" width="170" height="70" as="geometry" />
        </mxCell>
        <mxCell id="YMs_w-YO0QDrecfEAsBb-14" value="如果图搜范围为空，返回，程序不再执行；不为空就设置到context中" style="rounded=0;whiteSpace=wrap;html=1;" vertex="1" parent="1">
          <mxGeometry x="660" y="210" width="140" height="60" as="geometry" />
        </mxCell>
        <mxCell id="YMs_w-YO0QDrecfEAsBb-15" style="edgeStyle=orthogonalEdgeStyle;rounded=0;orthogonalLoop=1;jettySize=auto;html=1;exitX=0.5;exitY=0;exitDx=0;exitDy=0;entryX=-0.012;entryY=0.371;entryDx=0;entryDy=0;entryPerimeter=0;" edge="1" parent="1" source="YMs_w-YO0QDrecfEAsBb-11" target="YMs_w-YO0QDrecfEAsBb-12">
          <mxGeometry relative="1" as="geometry" />
        </mxCell>
        <mxCell id="YMs_w-YO0QDrecfEAsBb-20" value="构建查询库资源关系参数，获取资源" style="rounded=0;whiteSpace=wrap;html=1;" vertex="1" parent="1">
          <mxGeometry x="354" y="340" width="120" height="60" as="geometry" />
        </mxCell>
        <mxCell id="YMs_w-YO0QDrecfEAsBb-21" value="如果获取到的资源为空，程序不再往下执行；有的话将算子资源以Address为key，资源信息为value保存为map，设置到context中" style="rounded=0;whiteSpace=wrap;html=1;" vertex="1" parent="1">
          <mxGeometry x="490" y="340" width="190" height="60" as="geometry" />
        </mxCell>
        <mxCell id="YMs_w-YO0QDrecfEAsBb-23" value="&lt;b style=&quot;&quot;&gt;&lt;font style=&quot;font-size: 12px;&quot;&gt;2. url&lt;/font&gt;&lt;/b&gt;&lt;div style=&quot;&quot;&gt;构建特征提取请求，请求资源进行特征提取&lt;/div&gt;" style="rounded=0;whiteSpace=wrap;html=1;fillColor=#dae8fc;strokeColor=#6c8ebf;" vertex="1" parent="1">
          <mxGeometry x="380" y="430" width="100" height="60" as="geometry" />
        </mxCell>
        <mxCell id="YMs_w-YO0QDrecfEAsBb-24" value="&lt;b&gt;3. base64Image&lt;/b&gt;&lt;div&gt;构建特征提取请求，请求资源进行特征提取&lt;/div&gt;" style="rounded=0;whiteSpace=wrap;html=1;fillColor=#d5e8d4;strokeColor=#82b366;" vertex="1" parent="1">
          <mxGeometry x="480" y="430" width="100" height="60" as="geometry" />
        </mxCell>
        <mxCell id="YMs_w-YO0QDrecfEAsBb-25" value="4. ImgID&lt;div&gt;根据imgID从云库中查询图片URL，然后走（2.url流程）&lt;/div&gt;" style="rounded=0;whiteSpace=wrap;html=1;fillColor=#ffe6cc;strokeColor=#d79b00;" vertex="1" parent="1">
          <mxGeometry x="580" y="430" width="110" height="60" as="geometry" />
        </mxCell>
        <mxCell id="YMs_w-YO0QDrecfEAsBb-26" value="5. recordID&lt;div&gt;根据recordID查询特征（看之前有没有特征记录）&lt;/div&gt;" style="rounded=0;whiteSpace=wrap;html=1;fillColor=#fff2cc;strokeColor=#d6b656;" vertex="1" parent="1">
          <mxGeometry x="690" y="430" width="110" height="60" as="geometry" />
        </mxCell>
        <mxCell id="YMs_w-YO0QDrecfEAsBb-27" value="&lt;b&gt;1. feature&lt;/b&gt;&lt;div&gt;有特征则直接获取特征&lt;/div&gt;" style="rounded=0;whiteSpace=wrap;html=1;fillColor=#e1d5e7;strokeColor=#9673a6;" vertex="1" parent="1">
          <mxGeometry x="280" y="430" width="100" height="60" as="geometry" />
        </mxCell>
        <mxCell id="YMs_w-YO0QDrecfEAsBb-28" value="如果特征获取过程中出现错误信息，则将错误信息设置到context中（后续会判断）" style="rounded=0;whiteSpace=wrap;html=1;" vertex="1" parent="1">
          <mxGeometry x="665" y="490" width="160" height="60" as="geometry" />
        </mxCell>
        <mxCell id="YMs_w-YO0QDrecfEAsBb-29" value="如果errorMap有错误信息，返回，不再往下走" style="rounded=0;whiteSpace=wrap;html=1;" vertex="1" parent="1">
          <mxGeometry x="280" y="530" width="100" height="60" as="geometry" />
        </mxCell>
        <mxCell id="YMs_w-YO0QDrecfEAsBb-30" value="创建异步任务信息，根据context已有的信息创建JobInfo，生成jobId，将jobinfo存入redis" style="rounded=0;whiteSpace=wrap;html=1;" vertex="1" parent="1">
          <mxGeometry x="390" y="530" width="130" height="60" as="geometry" />
        </mxCell>
        <mxCell id="YMs_w-YO0QDrecfEAsBb-31" value="组装图搜参数，根据算子的Address将任务分组，将分组信息以及jobid设置到context中" style="rounded=0;whiteSpace=wrap;html=1;" vertex="1" parent="1">
          <mxGeometry x="530" y="530" width="130" height="60" as="geometry" />
        </mxCell>
        <mxCell id="YMs_w-YO0QDrecfEAsBb-32" value="如果errorMap有错误信息，返回，不再往下走" style="rounded=0;whiteSpace=wrap;html=1;" vertex="1" parent="1">
          <mxGeometry x="10" y="500" width="100" height="60" as="geometry" />
        </mxCell>
        <mxCell id="YMs_w-YO0QDrecfEAsBb-33" value="异步执行图搜（RPC下发任务并执行）" style="rounded=0;whiteSpace=wrap;html=1;" vertex="1" parent="1">
          <mxGeometry x="270" y="720" width="120" height="60" as="geometry" />
        </mxCell>
        <mxCell id="YMs_w-YO0QDrecfEAsBb-34" value="&lt;div style=&quot;&quot;&gt;&lt;p style=&quot;&quot;&gt;&lt;font face=&quot;Helvetica&quot;&gt;&lt;font style=&quot;font-size: 12px;&quot;&gt;onNext();&lt;br&gt;&lt;/font&gt;&lt;/font&gt;&lt;font face=&quot;Helvetica&quot;&gt;resultHandler.handleResult(value, jobId, taskId, extParam,sNumber);&lt;br&gt;&lt;/font&gt;&lt;font face=&quot;Helvetica&quot;&gt;根据排序规则，将搜索出来的结果排序筛选后存入redis；&lt;/font&gt;开启过期策略&lt;/p&gt;&lt;/div&gt;" style="rounded=0;whiteSpace=wrap;html=1;fillColor=default;labelBackgroundColor=none;fontColor=default;" vertex="1" parent="1">
          <mxGeometry x="414" y="680" width="380" height="50" as="geometry" />
        </mxCell>
        <mxCell id="YMs_w-YO0QDrecfEAsBb-35" value="onCompleted();&lt;div&gt;任务执行完后，将JobStatus更新为FINISHED，并存入Redis，更新过期时间&lt;/div&gt;" style="rounded=0;whiteSpace=wrap;html=1;" vertex="1" parent="1">
          <mxGeometry x="405" y="740" width="420" height="40" as="geometry" />
        </mxCell>
        <mxCell id="YMs_w-YO0QDrecfEAsBb-36" value="如果errorMap有错，则抛出错误，如果没有错误，将jobId返回，状态为200" style="rounded=0;whiteSpace=wrap;html=1;" vertex="1" parent="1">
          <mxGeometry x="280" y="810" width="240" height="60" as="geometry" />
        </mxCell>
      </root>
    </mxGraphModel>
  </diagram>
</mxfile>
